<?xml version="1.0" encoding="UTF-8"?> <svg xmlns="http://www.w3.org/2000/svg" width="1378" height="935" viewBox="0 0 1378 935" fill="none"><path d="M8.07686 265.967H16.1536V289.572H43.1141V265.967H51.1909V322.334H43.1141V296.681H16.1536V322.334H8.07686V265.967Z" fill="black"></path><path d="M110.856 265C127.92 265 137.987 277.456 137.987 294.179C137.987 310.901 128.034 323.358 110.856 323.358C93.679 323.358 83.7252 311.299 83.7252 294.179C83.7252 277.058 93.7359 265 110.856 265ZM110.856 316.191C123.882 316.191 129.399 305.327 129.399 294.122C129.399 282.917 123.256 271.996 110.856 272.11C98.4568 272.224 92.257 282.632 92.257 294.122C92.257 305.611 97.9449 316.191 110.856 316.191Z" fill="black"></path><path d="M217.504 299.013C217.504 314.882 209.541 323.357 195.606 323.357C181.67 323.357 173.764 314.882 173.764 299.013V266.024H181.84V297.989C181.84 308.796 185.196 316.248 195.606 316.248C206.015 316.248 209.426 308.796 209.426 297.989V266.024H217.504V299.013Z" fill="black"></path><path d="M281.777 274.499C278.49 272.939 274.893 272.142 271.254 272.167C266.704 272.167 261.358 273.759 261.358 279.675C261.358 290.482 285.588 287.979 285.588 306.521C285.588 318.58 276.317 323.585 264.998 323.585C261.11 323.385 257.274 322.599 253.622 321.253L254.418 313.688C258.13 315.299 262.096 316.242 266.135 316.475C267.493 316.649 268.871 316.546 270.188 316.172C271.503 315.798 272.73 315.161 273.793 314.3C274.857 313.439 275.734 312.371 276.373 311.161C277.012 309.951 277.399 308.624 277.511 307.261C277.511 294.691 253.281 298.103 253.281 280.585C253.281 270.574 261.187 265.227 271.368 265.227C275.453 265.251 279.507 265.943 283.37 267.275L281.777 274.499Z" fill="black"></path><path d="M334.106 273.077H316.587V265.967H359.7V273.077H342.182V322.334H334.106V273.077Z" fill="black"></path><path d="M414.134 265C431.198 265 441.265 277.456 441.265 294.179C441.265 310.901 431.368 323.358 414.134 323.358C396.899 323.358 387.002 311.299 387.002 294.179C387.002 277.058 397.013 265 414.134 265ZM414.134 316.191C427.159 316.191 432.734 305.384 432.734 294.122C432.734 282.86 426.591 271.996 414.134 272.11C401.678 272.224 395.592 282.632 395.592 294.122C395.592 305.611 401.279 316.191 414.134 316.191Z" fill="black"></path><path d="M476.871 265.967H487.905L512.761 311.356H512.932V265.967H520.952V322.334H510.657L485.118 276.034H484.947V322.334H476.871V265.967Z" fill="black"></path><path d="M384.671 618.444H392.008V663.322H413.508V669.805H384.671V618.444Z" fill="black"></path><path d="M441.265 618.444H470.045V624.929H448.658V639.943H468.168V646.429H448.658V663.492H470.045V669.976H441.265V618.444Z" fill="black"></path><path d="M517.539 618.444H525.274L547.002 669.635H538.982L533.749 656.666H508.609L503.376 669.635H495.527L517.539 618.444ZM521.179 625.383L510.94 650.808H531.417L521.179 625.383Z" fill="black"></path><path d="M573.451 618.444H588.637C603.824 618.444 615.995 627.886 615.995 643.699C615.995 660.762 605.53 669.805 588.637 669.805H573.451V618.444ZM580.845 663.322H588.524C601.207 663.322 608.204 657.235 608.204 643.982C608.367 641.462 607.995 638.936 607.114 636.568C606.232 634.202 604.861 632.048 603.088 630.25C601.316 628.45 599.183 627.046 596.829 626.129C594.476 625.211 591.956 624.803 589.434 624.929H580.845V663.322Z" fill="black"></path><path d="M644.606 618.444H651.943V669.635H644.606V618.444Z" fill="black"></path><path d="M685.217 618.444H695.227L717.979 659.795V618.444H725.316V669.635H715.932L692.669 627.373V669.635H685.331L685.217 618.444Z" fill="black"></path><path d="M796.984 627.545C792.765 624.925 787.832 623.692 782.878 624.019C777.725 624.236 772.851 626.424 769.264 630.131C765.675 633.836 763.647 638.778 763.596 643.935C763.544 649.094 765.475 654.075 768.99 657.851C772.503 661.627 777.331 663.911 782.48 664.232C785.259 664.341 788.039 664.034 790.728 663.322V647.736H779.921V641.708H798.121V668.384C793.056 670.026 787.747 670.795 782.424 670.659C778.828 670.925 775.219 670.419 771.836 669.175C768.454 667.93 765.377 665.976 762.811 663.445C760.246 660.912 758.255 657.86 756.967 654.493C755.68 651.126 755.128 647.524 755.349 643.926C755.239 640.37 755.873 636.829 757.208 633.531C758.544 630.235 760.552 627.252 763.105 624.773C765.658 622.295 768.699 620.377 772.036 619.14C775.372 617.903 778.928 617.375 782.48 617.59C787.624 617.428 792.75 618.299 797.553 620.15L796.984 627.545Z" fill="black"></path><path d="M871.552 618.444H883.723L899.819 661.103L915.632 618.444H927.804V669.635H920.411V625.61L903.346 670.032H896.123L879.059 625.61V670.032H871.665L871.552 618.444Z" fill="black"></path><path d="M960.794 618.444H989.574V624.929H968.131V639.943H987.641V646.429H968.131V663.492H989.574V669.976H960.794V618.444Z" fill="black"></path><path d="M1020.4 618.444H1035.53C1050.78 618.444 1062.89 627.886 1062.89 643.699C1062.89 660.762 1052.43 669.805 1035.53 669.805H1020.4V618.444ZM1027.74 663.322H1035.48C1048.1 663.322 1055.1 657.235 1055.1 643.982C1055.26 641.462 1054.89 638.936 1054.01 636.568C1053.13 634.202 1051.76 632.048 1049.98 630.25C1048.21 628.45 1046.08 627.046 1043.73 626.129C1041.37 625.211 1038.85 624.803 1036.33 624.929H1027.74V663.322Z" fill="black"></path><path d="M1093.38 618.444H1100.77V669.635H1093.38V618.444Z" fill="black"></path><path d="M1166.01 626.919C1162.82 625.006 1159.16 624.003 1155.43 624.019C1150.28 624.245 1145.41 626.441 1141.83 630.151C1138.25 633.861 1136.23 638.806 1136.18 643.962C1136.14 649.12 1138.08 654.097 1141.59 657.868C1145.11 661.64 1149.94 663.917 1155.09 664.232C1159.03 664.291 1162.92 663.434 1166.47 661.729L1166.69 668.839C1162.93 670.153 1158.96 670.77 1154.98 670.659C1151.38 670.925 1147.77 670.419 1144.39 669.175C1141.01 667.93 1137.93 665.976 1135.37 663.443C1132.8 660.912 1130.81 657.86 1129.52 654.493C1128.23 651.126 1127.68 647.523 1127.9 643.926C1127.79 640.344 1128.43 636.778 1129.78 633.46C1131.14 630.142 1133.17 627.144 1135.75 624.662C1138.34 622.18 1141.42 620.268 1144.79 619.049C1148.16 617.831 1151.74 617.335 1155.32 617.59C1159.22 617.536 1163.09 618.272 1166.69 619.753L1166.01 626.919Z" fill="black"></path><path d="M1197.69 618.444H1205.09V669.635H1197.69V618.444Z" fill="black"></path><path d="M1237.51 618.444H1247.52L1270.27 659.795V618.444H1277.67V669.635H1268.22L1245.02 627.373V669.635H1237.68L1237.51 618.444Z" fill="black"></path><path d="M1310.54 618.444H1338.98V624.929H1317.59V639.943H1337.33V646.429H1317.82V663.492H1339.21V669.976H1310.77L1310.54 618.444Z" fill="black"></path><path d="M312.434 476.02C312.434 436.603 337.574 400.371 382.339 400.371C428.125 400.371 444.905 429.607 444.905 462.369V465.839H351.851V469.365C351.851 508.725 364.536 537.619 397.355 537.619C419.594 537.619 430.116 529.714 441.834 509.179L447.862 513.332C442.386 525.363 433.588 535.58 422.506 542.783C411.423 549.987 398.514 553.879 385.296 554.001C335.357 554.001 312.491 519.078 312.491 476.475L312.434 476.02ZM405.659 457.705C405.659 434.214 402.758 408.448 381.143 408.448C363.682 408.448 352.704 427.503 351.909 458.33L405.659 457.705Z" fill="black"></path><path d="M485.061 509.066V419.141H456.167V405.49H485.687V357.826H520.952V405.49H563.212V419.141H521.293V506.165C521.293 522.091 526.07 534.605 542.906 534.605C558.776 534.605 560.369 521.864 561.619 508.839H569.469C567.535 533.012 553.885 553.944 525.9 553.944C497.916 553.944 485.231 537.79 485.231 509.465" fill="black"></path><path d="M573.735 541.601C578.503 541.471 583.222 540.607 587.728 539.041C593.756 537.164 595.975 532.045 595.975 525.049V344.232C595.945 340.725 595.162 337.265 593.681 334.085C592.199 330.906 590.052 328.082 587.386 325.803C580.663 322.833 573.454 321.118 566.113 320.741V314.371L630.33 310.844L632.207 313.063V424.943H632.832C644.947 412.884 657.006 398.892 684.023 398.892C713.259 398.892 726.568 418.573 726.568 448.775V523.798C726.195 526.716 726.767 529.677 728.201 532.246C729.634 534.816 731.853 536.857 734.532 538.074C738.98 539.981 743.702 541.171 748.523 541.601V547.914H669.404V541.601C673.965 541.441 678.475 540.577 682.771 539.041C688.46 537.164 689.71 532.045 689.71 525.049V448.433C689.71 426.82 679.246 415.728 666.96 415.728C659.75 415.57 652.643 417.457 646.463 421.172C640.282 424.886 635.279 430.276 632.035 436.717V523.229C631.721 526.074 632.249 528.948 633.552 531.497C634.857 534.045 636.881 536.154 639.374 537.562C643.622 539.735 648.264 541.03 653.024 541.374V547.687H573.394L573.735 541.601Z" fill="black"></path><path d="M1021.65 541.601C1026.42 541.471 1031.14 540.607 1035.65 539.041C1038.34 537.907 1040.6 535.933 1042.09 533.412C1043.58 530.892 1044.21 527.959 1043.89 525.049V432.564C1043.93 429.469 1043.23 426.41 1041.83 423.648C1040.43 420.884 1038.39 418.5 1035.87 416.695C1030.11 413.394 1023.71 411.339 1017.1 410.667V404.58L1078.42 400.77L1080.64 402.988V523.229C1080.43 526.255 1081.13 529.275 1082.66 531.894C1084.2 534.512 1086.48 536.606 1089.23 537.904C1093.68 539.839 1098.39 541.124 1103.22 541.715V548.028H1021.65V541.601ZM1035.87 340.08C1035.86 337.033 1036.45 334.013 1037.6 331.195C1038.76 328.376 1040.47 325.814 1042.62 323.657C1044.77 321.5 1047.33 319.79 1050.14 318.626C1052.96 317.461 1055.98 316.866 1059.02 316.873C1062.07 316.774 1065.11 317.29 1067.96 318.388C1070.8 319.487 1073.4 321.147 1075.59 323.27C1077.78 325.393 1079.53 327.934 1080.71 330.744C1081.9 333.554 1082.52 336.574 1082.51 339.625C1082.54 342.721 1081.96 345.792 1080.79 348.659C1079.62 351.526 1077.89 354.131 1075.71 356.323C1073.52 358.515 1070.92 360.249 1068.05 361.425C1065.19 362.602 1062.12 363.195 1059.02 363.173C1052.94 363.203 1047.1 360.829 1042.76 356.567C1038.43 352.305 1035.95 346.501 1035.87 340.421" fill="black"></path><path d="M1128.53 540.292L1124.09 549.848H1113.91L1112.38 498.658H1119.03C1123.81 515.721 1142.86 545.695 1168.57 545.695C1188.31 545.695 1195.93 534.946 1195.93 519.645C1195.93 503.151 1181.94 496.439 1159.07 489.443C1138.43 483.129 1116.47 471.015 1116.47 442.746C1116.47 418.914 1135.87 399.859 1167.95 399.859C1180.31 399.661 1192.53 402.493 1203.55 408.107L1206.74 399.518H1216.29L1218.51 445.93H1212.2C1207.14 426.251 1191.55 407.481 1169.94 407.481C1166.9 407.171 1163.82 407.525 1160.93 408.519C1158.04 409.513 1155.4 411.124 1153.2 413.238C1150.99 415.353 1149.27 417.922 1148.15 420.769C1147.03 423.615 1146.55 426.668 1146.73 429.72C1146.73 446.784 1158.5 450.993 1182.62 458.956C1208.39 467.545 1225.51 480.286 1225.51 506.336C1225.51 536.198 1200.77 553.318 1168.97 553.318C1154.46 553.425 1140.3 548.858 1128.59 540.292" fill="black"></path><path d="M1261.11 509.066V419.141H1232.16V405.49H1261.74V357.826H1297V405.49H1339.26V419.141H1297.52V506.165C1297.52 522.091 1302.24 534.605 1319.13 534.605C1335 534.605 1336.59 521.864 1337.84 508.839H1345.52C1343.59 533.012 1329.94 553.944 1301.95 553.944C1273.97 553.944 1261.28 537.79 1261.28 509.465" fill="black"></path><path d="M996.059 535.685C993.612 533.973 991.598 531.714 990.177 529.088C988.755 526.462 987.965 523.541 987.868 520.555V317.044L985.707 314.826L916.429 318.466V324.154C925.944 324.682 935.251 327.14 943.788 331.377C946.355 333.601 948.411 336.353 949.816 339.445C951.219 342.538 951.937 345.898 951.921 349.294V409.471C940.227 404.408 927.636 401.739 914.893 401.623C899.53 401.692 884.641 406.942 872.632 416.524C870.818 417.916 869.088 419.416 867.456 421.017C862.515 425.753 858.281 431.174 854.886 437.114C848.193 448.755 844.718 461.967 844.819 475.395C844.439 490.127 847.538 504.741 853.863 518.052C852.863 521.414 851.588 524.685 850.051 527.835C844.363 539.212 836.287 546.037 824.57 546.037C798.52 546.037 789.704 513.048 789.704 475.622C789.704 445.476 795.675 409.074 824.911 409.074C829.472 409.033 833.964 410.19 837.936 412.43C840.028 413.706 841.94 415.256 843.624 417.037C843.913 416.577 844.236 416.139 844.591 415.728L846.467 413.68C849.71 410.496 854.203 406.741 854.203 406.741C852.383 406.06 850.393 405.547 848.516 404.978C847.663 404.694 843.51 403.613 842.827 403.5L838.22 402.647C833.751 402.069 829.247 401.803 824.74 401.85C778.839 401.85 749.035 432.963 749.035 477.839C749.035 524.992 783.162 553.545 822.977 553.545C839.71 554 856.15 549.097 869.902 539.554C870.238 539.305 870.561 539.04 870.869 538.757C879.32 532.337 886.139 524.017 890.776 514.469C896.517 502.574 899.437 489.513 899.308 476.305C899.459 463.169 896.434 450.194 890.492 438.48C891.433 435.781 892.535 433.141 893.791 430.573C900.218 417.264 909.774 409.7 921.092 409.7C939.92 409.7 948.394 424.146 951.523 434.499V524.025C944.015 532.501 936.791 538.472 923.084 538.472C916.091 539.157 909.104 537.12 903.575 532.785C899.364 539.371 894.009 545.15 887.762 549.848C894.641 552.409 901.922 553.719 909.262 553.717C917.072 553.335 924.731 551.416 931.798 548.068C938.864 544.72 945.201 540.009 950.442 534.207L951.694 534.548V548.37L953.911 550.531L1013.86 548.37V542.113C1007.56 541.168 1001.51 538.984 996.059 535.685Z" fill="black"></path><path d="M291.787 537.335C290.011 536.611 288.404 535.524 287.072 534.142C285.739 532.762 284.711 531.117 284.052 529.315C284.02 528.804 284.02 528.291 284.052 527.779V357.143H270.06L163.184 519.872V357.371H149.363L42.4884 519.872C40.0004 524.627 36.56 528.819 32.3814 532.184C28.203 535.551 23.3759 538.02 18.2012 539.439C12.1785 540.543 6.10359 541.341 0 541.828V547.914H91.0058V541.828C85.8867 541.202 80.7677 540.691 75.7055 539.667C71.0719 538.819 66.5364 537.505 62.1684 535.742C60.5499 535.34 59.08 534.484 57.9313 533.274C56.7827 532.065 56.0031 530.553 55.6842 528.917C55.3401 526.339 56.0133 523.728 57.5612 521.636L125.076 415.16V547.914H161.421L245.772 414.704V525.219C245.692 527.649 244.999 530.019 243.756 532.107C242.512 534.196 240.76 535.935 238.662 537.164L237.412 537.904C229.765 539.966 221.936 541.28 214.035 541.828V547.914H312.434V541.828C305.411 541.075 298.489 539.569 291.787 537.335Z" fill="black"></path><path d="M1361.85 365.391C1358.65 365.402 1355.51 364.465 1352.84 362.698C1350.17 360.931 1348.09 358.413 1346.85 355.462C1345.6 352.511 1345.27 349.259 1345.87 346.115C1346.48 342.972 1348 340.078 1350.25 337.799C1352.49 335.519 1355.37 333.956 1358.5 333.307C1361.63 332.658 1364.89 332.951 1367.87 334.15C1370.83 335.349 1373.37 337.401 1375.18 340.045C1376.98 342.689 1377.97 345.809 1377.99 349.01C1378.05 351.156 1377.67 353.292 1376.89 355.289C1376.09 357.285 1374.91 359.102 1373.4 360.631C1371.9 362.16 1370.1 363.37 1368.11 364.187C1366.12 365.005 1363.99 365.415 1361.85 365.391ZM1361.85 334.506C1358.93 334.495 1356.08 335.348 1353.66 336.957C1351.22 338.566 1349.33 340.86 1348.2 343.547C1347.07 346.235 1346.77 349.196 1347.33 352.056C1347.89 354.915 1349.28 357.546 1351.33 359.614C1353.39 361.682 1356.01 363.095 1358.86 363.675C1361.71 364.254 1364.68 363.974 1367.38 362.869C1370.07 361.765 1372.38 359.885 1374.01 357.469C1375.63 355.053 1376.51 352.208 1376.52 349.294C1376.56 347.351 1376.21 345.421 1375.48 343.617C1374.76 341.813 1373.68 340.172 1372.32 338.793C1370.95 337.413 1369.31 336.323 1367.52 335.587C1365.72 334.85 1363.78 334.483 1361.85 334.506ZM1365.83 359.476L1361.62 350.432H1358.27V359.476H1355.82V338.999H1361.85C1366.39 338.999 1368.22 340.99 1368.22 344.687C1368.43 345.976 1368.12 347.298 1367.37 348.364C1366.61 349.429 1365.46 350.152 1364.18 350.375L1368.5 359.646L1365.83 359.476ZM1358.27 348.1H1361.85C1364.69 348.1 1365.77 347.076 1365.77 344.517C1365.77 341.957 1364.74 340.99 1361.5 340.99H1358.27V348.1Z" fill="black"></path></svg> 