<?xml version="1.0" encoding="UTF-8"?> <svg xmlns="http://www.w3.org/2000/svg" width="1378" height="935" viewBox="0 0 1378 935" fill="none"><path d="M776.965 710.842C772.635 722.445 765.886 732.997 757.166 741.79C748.712 750.258 738.677 756.987 727.631 761.588C715.922 766.381 703.363 768.764 690.71 768.603C677.953 768.643 665.3 766.264 653.422 761.588C641.934 757.195 631.486 750.449 622.746 741.79C613.956 732.896 606.972 722.388 602.173 710.842C596.88 698.082 594.242 684.378 594.42 670.568C594.42 640.875 603.74 618.19 622.377 602.507C641.017 586.82 663.806 578.99 690.747 579.013C703.097 578.939 715.354 581.218 726.856 585.726C737.858 590.032 747.896 596.479 756.391 604.685C764.969 613.029 771.813 622.986 776.528 633.988C781.566 645.846 784.08 658.623 783.912 671.507C784.033 684.936 781.68 698.27 776.965 710.842ZM867.851 583.306C853.527 562.927 833.175 547.549 809.654 539.339H802.136C807.1 535.54 811.849 531.472 816.367 527.16C832.99 511.171 846.361 492.111 855.738 471.04C865.589 449.027 870.59 425.147 870.405 401.029C870.549 379.137 867.15 357.365 860.336 336.556C854.114 317.272 844.17 299.39 831.067 283.931C818.085 268.908 802.069 256.796 784.08 248.389C747.198 232.46 705.702 230.842 667.686 243.858C651.381 250.312 636.641 260.176 624.461 272.788L623.052 271.379L642.548 160.623H843.921V79H571.362L523.271 348.74H612.476C620.679 336.714 631.385 326.605 643.857 319.104C655.046 312.841 669.455 309.707 687.088 309.707C699.332 309.448 711.488 311.828 722.731 316.688C732.834 321.249 741.855 327.894 749.209 336.187C756.743 344.695 762.452 354.657 765.99 365.453C769.755 376.922 771.635 388.927 771.564 400.996C771.574 412.981 769.564 424.885 765.621 436.203C761.912 447.137 756.22 457.297 748.839 466.174C741.52 474.863 732.511 481.982 722.359 487.083C711.438 492.54 699.362 495.289 687.152 495.108C664.78 495.108 646.421 488.483 632.08 475.236C617.735 461.992 609.368 444.214 606.975 421.905H507.93C507.876 445.194 513.243 468.174 523.603 489.03C533.259 507.912 546.939 524.444 563.68 537.46C564.919 538.433 566.227 539.339 567.503 540.282C544.795 548.861 525.097 563.917 510.85 583.574C492.951 608.32 484 639.12 484 675.971C484 707.295 489.83 734.249 501.486 756.823C512.645 778.849 528.611 798.084 548.205 813.11C567.916 828.105 590.332 839.171 614.221 845.699C639.141 852.609 664.887 856.073 690.747 855.999C716.019 856.012 741.154 852.257 765.318 844.86C788.94 837.758 811.054 826.384 830.567 811.297C849.905 796.225 865.69 777.077 876.779 755.215C888.438 732.658 894.265 705.989 894.265 675.199C894.265 638.999 885.461 608.367 867.851 583.306" fill="black"></path></svg> 