<?xml version="1.0" encoding="UTF-8"?> <svg xmlns="http://www.w3.org/2000/svg" width="1378" height="935" viewBox="0 0 1378 935" fill="none"><path fill-rule="evenodd" clip-rule="evenodd" d="M279.942 255.586C255.873 257.944 230.889 266.366 212.881 278.194C198.823 287.427 186.251 299.827 178.156 312.442C168.56 327.398 163.514 343.031 162.75 360.172C162.122 374.314 164.389 385.642 170.188 397.345C187.461 432.2 230.333 449.237 273.467 438.389C285.736 435.303 295.614 430.051 303.956 422.182C309.704 416.759 313.507 411.548 317.026 404.273C320.728 396.616 322.059 390.32 321.03 385.329C320.067 380.659 318.842 378.157 317.045 377.196C314.932 376.065 314.02 376.854 313.509 380.26C311.41 394.26 293.761 413.455 273.644 423.615C253.092 433.994 227.954 435.303 210.92 426.88C188.272 415.682 178.441 388.006 185.218 354.533C187.334 344.09 190.068 335.985 194.869 325.925C210.638 292.887 237.971 270.62 270.405 264.387C277.998 262.927 295.839 262.741 305.264 264.023C320.172 266.049 338.427 270.781 354.731 276.845C373.285 283.747 385.255 289.126 420.506 306.409C432.704 312.388 444.542 318.097 446.815 319.095C449.088 320.092 451.05 320.98 451.173 321.066C451.297 321.152 447.737 325.463 443.263 330.645C411.793 367.089 386.954 406.667 349.009 480.817C321.149 535.263 293.902 574.655 261.862 606.811C226.028 642.775 188.994 663.664 148.615 670.688C141.069 671.999 137.697 672.207 124.392 672.179C110.962 672.149 108.087 671.957 102.464 670.701C60.1064 661.253 33.8879 631.489 27.6053 585.722C26.4832 577.547 26.4839 554.857 27.6067 547.246C31.7147 519.406 42.8623 497.233 61.9979 478.844C75.4015 465.963 90.3259 457.609 108.172 452.998C114.231 451.432 116.023 451.269 127.352 451.258C142.127 451.242 146.81 452.202 157.697 457.477C177.993 467.31 190.14 485.33 195.156 513.045C196.831 522.293 196.864 543.522 195.217 551.85C191.587 570.213 185.19 583.232 174.118 594.784C167.812 601.365 161.857 605.876 154.911 609.332C144.176 614.675 136.547 616.297 124.463 615.812C107.291 615.121 96.3808 608.949 90.4547 596.575C87.2273 589.836 86.1467 583.777 86.1731 572.568C86.2124 555.966 88.9433 544.237 95.7744 531.33C97.7679 527.564 99.399 524.076 99.399 523.577C99.399 522.168 97.1523 521.788 93.1888 522.52C82.4918 524.496 74.4104 533.853 70.3497 548.959C68.2548 556.75 68.2443 570.969 70.3266 579.344C74.711 596.977 86.5262 611.118 102.581 617.95C124.216 627.157 153.542 625.101 174.51 612.908C204.52 595.456 222.994 557.874 219.756 520.862C216.367 482.136 192.244 454.946 153.654 446.36C139.136 443.129 116.325 442.826 100.057 445.648C65.7101 451.603 37.4863 469.458 19.7062 496.481C-1.68407 528.99 -6.00461 571.496 8.43292 607.382C24.5765 647.505 60.6603 673.131 108.975 678.781C118.848 679.937 139.672 680.088 150.7 679.084C197.904 674.787 236.671 656.65 278.627 619.235C310.796 590.546 334.286 558.066 359.228 507.783C364.252 497.655 370.417 484.78 372.926 479.172C376.555 471.065 377.737 469.002 378.701 469.097C379.369 469.164 383.911 469.71 388.794 470.313C393.678 470.917 399.672 471.307 402.115 471.181C404.557 471.054 406.481 471.099 406.389 471.28C406.298 471.462 404.379 475.248 402.123 479.693C397.874 488.072 394.962 496.23 395.613 497.926C396.164 499.365 398.235 499.117 399.791 497.424C400.539 496.611 402.866 493.281 404.962 490.025C417.687 470.257 425.326 463.005 442.106 454.766C446.344 452.685 450.829 450.088 452.074 448.997C456.9 444.759 457.706 438.803 453.958 435.055C450.342 431.439 443.071 431.847 436.522 436.036C434.52 437.316 429.218 442.015 424.74 446.478C411.465 459.705 407.183 461.862 395.476 461.222C387.163 460.769 381.343 459.637 381.761 458.555C383.971 452.838 392.862 433.755 399.736 419.979C418.902 381.568 439.643 349.311 456.062 332.378L461.604 326.663L472.574 331.548C508.889 347.718 534.112 354.864 554.868 354.864C580.461 354.864 601.852 345.648 611.824 330.323C615.641 324.458 616.693 320.73 616.693 313.065C616.693 306.709 616.594 306.253 614.138 301.284C606.823 286.486 589.212 277.788 562.872 275.965C530.864 273.749 499.82 283.093 471.829 303.369C466.513 307.221 464.78 308.157 463.64 307.796C462.846 307.543 456.705 304.675 449.994 301.423C423.628 288.644 418.33 286.144 407.682 281.463C374.446 266.852 343.696 258.093 316.774 255.57C308.583 254.803 287.848 254.812 279.942 255.586ZM563.403 283.203C582.076 285.342 596.329 293.059 601.613 303.891C603.253 307.252 603.539 308.62 603.539 313.099C603.539 319.703 601.889 323.404 596.646 328.57C592.191 332.959 585.228 336.523 577.095 338.579C572.137 339.832 569.526 340.042 558.814 340.053C542.516 340.07 533.846 338.313 514.417 331.058C506.111 327.955 477.9 315.292 476.725 314.137C475.288 312.725 492.047 301.289 504.882 294.923C517.764 288.534 530.827 284.571 544.344 282.949C548.611 282.437 557.789 282.56 563.403 283.203ZM406.375 348.553C388.76 359.159 362.96 388.925 334.589 431.371C328.745 440.116 322.724 449.271 321.214 451.714L318.466 456.152L313.016 456.154C301.413 456.155 284.978 458.331 275.009 461.187C262.752 464.7 252.914 471.394 249.482 478.558C244.347 489.277 247.747 502.02 256.746 505.779C258.086 506.339 259.449 506.797 259.776 506.797C260.102 506.797 260.575 504.948 260.825 502.686C261.903 492.964 264.744 486.31 270.384 480.299C276.887 473.372 285.727 469.001 297.986 466.656C301.9 465.907 306.89 465.383 309.073 465.491L313.043 465.689L308.082 474.898C288.041 512.099 252.547 563.807 225.091 595.8C201.413 623.392 183.746 638.896 166.131 647.541C156.987 652.028 154.114 654.047 154.951 655.399C156.971 658.668 179.834 649.901 198.206 638.812C229.074 620.183 257.229 593.272 285.754 555.139C300.872 534.928 309.641 521.019 325.15 492.655C333.455 477.463 334.089 476.284 346.702 452.535C369.582 409.452 387.379 379.885 404.771 356.059C407.812 351.892 410.498 348.164 410.739 347.773C411.745 346.145 409.794 346.494 406.375 348.553ZM1327.14 427.884C1321.1 429.696 1313.06 435.535 1305.62 443.497C1300.52 448.96 1292.48 459.434 1288.72 465.525L1286.39 469.307H1224.77C1190.87 469.307 1128.86 469.505 1086.97 469.746L1010.79 470.183L1017.2 476.424L1023.62 482.664L1047.07 482.219C1059.96 481.974 1075.55 481.627 1081.7 481.446C1087.85 481.266 1121.14 480.533 1155.69 479.816C1190.24 479.1 1232.39 478.221 1249.37 477.861C1266.34 477.502 1280.32 477.305 1280.44 477.424C1280.85 477.834 1253.13 517.928 1238.39 538.24C1213.62 572.375 1193.16 594.41 1174.43 607.124C1166.81 612.298 1161.96 614.606 1157.62 615.118C1155.02 615.427 1154.31 615.255 1153.07 614.015C1151.79 612.735 1151.63 612.012 1151.86 608.418C1152.22 602.895 1156.06 595.362 1167.31 578.159C1180.88 557.4 1185.2 549.202 1187.67 539.582C1189.09 534.02 1188.68 524.694 1186.82 520.61C1182.38 510.818 1170.89 508.232 1155.36 513.528C1146.35 516.601 1134.38 524.193 1123.83 533.529C1120.23 536.712 1117.55 538.881 1117.88 538.349C1118.2 537.816 1122.42 531.534 1127.25 524.391L1136.02 511.401H1121.54H1107.05L1102.98 517.454C1090.61 535.85 1070.03 550.148 1055.71 550.283C1048.43 550.351 1043.37 548.087 1039.07 542.831C1036.68 539.924 1032.7 532.222 1032.7 530.523C1032.7 530.006 1031.54 527.183 1030.12 524.248C1026.85 517.495 1022.16 512.609 1016.29 509.825C1012.18 507.88 1011.61 507.786 1004.09 507.839C987.759 507.956 973.906 513.574 959.147 526.066C952.3 531.863 945.945 539.085 937.791 550.334C916.13 580.216 894.352 602.963 879.446 611.273C875.231 613.623 868.157 615.599 865.947 615.044C863.735 614.489 862.349 612.86 862.349 610.815C862.349 607.831 866.219 600.703 878.46 581.142C898.407 549.269 901.756 542.278 902.314 531.366C902.871 520.481 899.477 514.737 890.929 512.096C875.946 507.469 856.486 514.8 839.512 531.469C835.794 535.119 832.753 538.054 832.753 537.99C832.753 537.927 833.22 536.58 833.791 534.997C834.392 533.327 834.845 529.875 834.871 526.776C834.908 522.318 834.653 520.958 833.34 518.579C827.584 508.15 808.031 508.244 789.489 518.787C783.346 522.282 773.905 529.243 768.748 534.081C767.007 535.715 765.442 537.052 765.271 537.052C764.97 537.052 771.729 527.081 779.204 516.498L782.805 511.401H767.982H753.16L747.878 519.419C738.553 533.573 736.678 535.516 728.362 539.641C724.855 541.383 717.676 543.628 715.623 543.628C715.155 543.628 715.707 542.715 716.85 541.597C722.521 536.052 724.617 525.432 721.417 518.443C718.902 512.951 714.284 510.081 706.386 509.106C694.588 507.648 670.596 520.244 652.702 537.291C650.443 539.444 648.592 540.993 648.592 540.733C648.592 540.471 653.011 533.766 658.412 525.83L668.233 511.401H653.889H639.546L629.672 526.364C613.917 550.239 602.044 565.067 584.95 582.207C563.922 603.296 546.056 615.489 536.013 615.605C532.934 615.642 531.989 615.37 530.579 614.048C527.893 611.526 527.286 608.122 528.526 602.548C530.459 593.859 529.798 594.954 568.675 536.065C577.034 523.404 584.096 512.675 584.372 512.224C584.765 511.575 581.806 511.401 570.405 511.401H555.94L537.024 539.847C526.621 555.493 515.587 571.844 512.505 576.185C494.504 601.533 479.109 614.538 465.605 615.803C456.572 616.651 453.507 611.216 456.452 599.571C458.725 590.58 463.364 582.098 478.231 559.743C506.789 516.807 509.814 512.215 509.814 511.799C509.814 511.567 503.397 511.455 495.553 511.552L481.292 511.729L474.671 521.717C471.029 527.209 467.868 531.722 467.648 531.747C467.427 531.771 467.079 530.164 466.874 528.176C466.072 520.41 461.491 515.01 453.594 512.525C447.567 510.629 433.603 510.512 426.941 512.301C418.868 514.471 411.638 517.563 405.237 521.582C379.834 537.536 360.039 571.629 361.347 597.177C362.208 613.995 370.421 622.748 386.237 623.701C396.658 624.33 406.77 620.825 417.404 612.901C423.134 608.631 432.694 598.849 436.228 593.638C437.451 591.836 438.599 590.355 438.781 590.348C438.962 590.342 439.137 592.337 439.171 594.782C439.361 608.353 446.191 619.412 456.316 622.54C458.684 623.272 461.85 623.865 463.35 623.861C470.297 623.837 479.884 619.955 488.11 613.837C493.137 610.098 503.183 600.226 508.353 593.944C510.736 591.05 512.911 588.418 513.186 588.094C513.462 587.771 513.525 590.138 513.33 593.357C512.667 604.177 515.74 613.496 521.75 618.9C534.426 630.297 553.698 622.235 583.744 592.969C589.134 587.717 593.278 583.883 592.951 584.448C592.624 585.013 586.864 593.597 580.15 603.522C573.438 613.447 567.722 621.938 567.45 622.39C567.062 623.038 569.989 623.2 581.302 623.153L595.645 623.094L606.498 606.687C636.631 561.129 662.733 532.995 685.936 521.061C695.108 516.344 707.576 513.028 700.171 517.275C693.239 521.251 689.726 527.24 689.728 535.078C689.733 550.219 702.31 554.466 724.774 546.919C727.89 545.871 730.512 545.089 730.603 545.179C730.694 545.271 719.234 562.738 705.136 583.999C691.039 605.26 679.505 622.779 679.505 622.934C679.505 623.086 685.942 623.204 693.81 623.193L708.115 623.173L721.928 602.335C742.268 571.646 749.037 562.94 765.008 546.93C783.94 527.948 800.605 517.321 811.433 517.321C817.568 517.321 818.584 520.72 814.733 528.367C813.504 530.808 799.209 552.776 782.965 577.186C766.722 601.597 753.208 621.938 752.934 622.39C752.54 623.038 755.51 623.212 766.955 623.212H781.475L788.478 612.524C822.062 561.265 827.121 554.113 837.416 543.344C851.942 528.149 865.355 519.324 876.542 517.601C878.803 517.253 879.525 517.448 881.146 518.843C882.76 520.232 883.057 520.964 883.006 523.423C882.89 529.022 878.418 536.692 864.322 555.467C850.715 573.589 845.218 582.527 842.263 591.331C838.045 603.895 842.482 616.544 852.896 621.638C863.032 626.596 878.034 622.829 892.934 611.583C900.305 606.019 912.857 593.559 920.472 584.243C923.652 580.354 926.348 577.172 926.466 577.172C926.582 577.172 926.238 578.578 925.701 580.297C924.187 585.141 923.856 596.346 925.061 601.995C928.628 618.738 940.631 628.005 957.39 626.954C975.662 625.81 997.163 611.199 1014.83 587.926C1023.17 576.934 1028.91 565.619 1031.65 554.782L1033.09 549.088L1035.36 550.989C1039.84 554.74 1044.06 556.284 1050.8 556.637C1060.91 557.165 1070.76 554.427 1079.58 548.635C1082.01 547.038 1084 545.854 1084 546.004C1084 546.154 1082.54 548.419 1080.76 551.037C1078.98 553.655 1067.43 570.971 1055.1 589.517L1032.68 623.238L1047.23 623.061L1061.78 622.884L1066.73 615.649C1076.92 600.774 1092.37 579.143 1099.85 569.28C1114.61 549.815 1125.83 538.945 1142.82 527.614C1157.02 518.152 1165.84 515.446 1168.63 519.699C1169.7 521.332 1169.69 521.601 1168.57 524.798C1167.07 529.045 1162.81 535.605 1152.07 550.206C1140.78 565.557 1135.27 574.059 1130.98 582.763C1122.76 599.459 1122.93 611.24 1131.51 618.949C1137.32 624.172 1147.51 625.939 1157.62 623.476C1163.83 621.962 1174.16 616.708 1181.01 611.58C1186.77 607.27 1201.62 593.024 1207.96 585.722C1211.7 581.421 1211.37 582.131 1205.95 589.998C1190.16 612.95 1182.96 630.634 1184.76 642.074C1185.45 646.496 1186.48 648.598 1189.35 651.429C1193.67 655.686 1199.63 657.83 1209.56 658.693C1223.98 659.945 1234.41 656.929 1239.27 650.103C1241.54 646.926 1240.31 646.235 1232.4 646.223C1216.88 646.199 1210.56 641.975 1210.7 631.703C1210.82 623.184 1214.52 614.998 1229.55 589.998C1250.16 555.724 1265.57 532.01 1293.35 491.834L1303.93 476.542L1309.56 476.527C1312.65 476.519 1327.47 476.081 1342.48 475.555C1357.49 475.03 1371.63 474.592 1373.89 474.584L1378 474.569V471.944V469.319L1343.47 469.148L1308.94 468.978L1322.09 449.247C1329.33 438.395 1335.25 429.178 1335.25 428.763C1335.25 427.224 1330.91 426.752 1327.14 427.884ZM586.307 461.838C579.566 464.227 575.3 471.974 576.792 479.121C578.274 486.22 583.417 490.833 590.572 491.482C602.43 492.556 610.674 480.509 605.576 469.559C602.255 462.424 593.996 459.116 586.307 461.838ZM1012.43 518.414C1017.16 522.698 1017.19 531.537 1012.52 546.221C1010.17 553.624 1002.27 569.361 996.821 577.501C984.472 595.949 968.033 611.869 957.009 616.058C952.979 617.59 948.015 617.662 945.955 616.22C931.805 606.307 957.865 551.349 988.631 526.215C993.276 522.42 1000.69 518.096 1003.99 517.26C1007 516.494 1010.9 517.028 1012.43 518.414ZM454.174 521.957C457.162 524.582 458.12 527.626 457.659 533.048C456.038 552.106 433.23 587.77 411.485 605.245C397.887 616.174 385.217 618.425 381.186 610.63C379.573 607.512 380.182 599.368 382.531 592.629C390.682 569.246 413.916 538.078 432.711 525.314C438.468 521.405 442.281 520.029 447.472 519.988C451.483 519.954 452.099 520.135 454.174 521.957Z" fill="black"></path></svg> 