<?xml version="1.0" encoding="UTF-8"?> <svg xmlns="http://www.w3.org/2000/svg" width="1378" height="935" viewBox="0 0 1378 935" fill="none"><g clip-path="url(#clip0_7_265)"><path d="M375.913 667.364C371.363 667.368 366.902 666.103 363.031 663.71C359.161 661.318 356.035 657.893 354.005 653.821L200.408 346.548L46.7313 653.821C45.373 656.816 43.4249 659.506 41.0034 661.73C38.5818 663.955 35.7366 665.668 32.6377 666.768C29.5389 667.867 26.2501 668.331 22.968 668.131C19.6859 667.931 16.4779 667.071 13.5358 665.602C10.5936 664.134 7.97781 662.087 5.84469 659.585C3.71156 657.082 2.10495 654.175 1.1209 651.038C0.136852 647.9 -0.204423 644.597 0.117482 641.324C0.439386 638.052 1.41786 634.878 2.9944 631.992L178.26 280.903C180.293 276.844 183.415 273.431 187.278 271.046C191.14 268.66 195.59 267.397 200.129 267.397C204.668 267.397 209.118 268.66 212.98 271.046C216.842 273.431 219.965 276.844 221.997 280.903L397.263 631.992C399.124 635.723 400 639.867 399.808 644.031C399.616 648.195 398.364 652.241 396.169 655.785C393.974 659.329 390.909 662.253 387.267 664.279C383.624 666.306 379.524 667.368 375.355 667.364" fill="black"></path><path d="M977.953 642.913C977.958 638.365 979.227 633.907 981.619 630.039C984.01 626.17 987.43 623.042 991.496 621.005L1298.93 467.408L991.496 313.731C988.502 312.373 985.812 310.425 983.587 308.003C981.363 305.582 979.649 302.737 978.549 299.638C977.45 296.539 976.986 293.25 977.186 289.968C977.386 286.686 978.247 283.478 979.715 280.536C981.183 277.594 983.23 274.978 985.732 272.845C988.235 270.712 991.142 269.105 994.279 268.121C997.417 267.137 1000.72 266.796 1003.99 267.117C1007.27 267.439 1010.44 268.418 1013.32 269.994L1364.41 445.26C1368.49 447.285 1371.93 450.409 1374.33 454.279C1376.73 458.15 1378 462.614 1378 467.169C1378 471.723 1376.73 476.187 1374.33 480.058C1371.93 483.929 1368.49 487.052 1364.41 489.077L1013.32 664.343C1009.59 666.203 1005.45 667.079 1001.29 666.888C997.122 666.696 993.076 665.443 989.532 663.248C985.988 661.053 983.064 657.989 981.038 654.346C979.011 650.704 977.949 646.603 977.953 642.435" fill="black"></path><path d="M885.779 291.5C885.818 291.023 885.818 290.544 885.779 290.066C885.821 289.722 885.821 289.375 885.779 289.031C885.818 288.633 885.818 288.233 885.779 287.836V286.561V285.605C885.672 285.146 885.539 284.694 885.38 284.251V283.454C885.38 282.976 885.38 282.498 884.823 282.1V281.223C884.823 280.825 884.823 280.427 884.185 279.949L883.548 278.993L882.99 278.037L882.114 276.842L881.556 276.204L880.521 275.009L879.963 274.452C879.631 274.066 879.257 273.719 878.848 273.416L878.21 272.858L877.175 272.062L876.219 271.345L875.263 270.867C874.885 270.553 874.453 270.31 873.988 270.15H873.43L871.996 269.512L871.04 269.114L869.766 268.716H868.65H867.535H866.101H860.206H858.931H857.736H856.78H855.426H854.629L853.275 269.273L852.398 269.672L851.124 270.309L850.168 270.867L849.212 271.504L848.017 272.38L847.3 272.938L846.184 273.894L845.627 274.531C845.268 274.837 844.947 275.185 844.671 275.567L843.954 276.284L843.237 277.24L842.52 278.355L842.042 279.152L841.245 280.506L685.497 588.178L532.14 280.905C531.932 280.437 531.692 279.985 531.423 279.55L530.945 278.674L530.228 277.718C529.987 277.354 529.721 277.008 529.431 276.682L528.794 275.965L527.838 274.93C527.646 274.698 527.432 274.484 527.2 274.292L526.165 273.097L525.368 272.46L524.253 271.663L523.217 271.026L522.341 270.468L520.827 269.99L520.11 269.592L518.596 269.034H517.879L516.445 268.636H515.569H514.294H513.099H507.204C506.754 268.591 506.3 268.591 505.85 268.636C505.455 268.561 505.049 268.561 504.655 268.636H503.539L502.185 269.114H501.309L499.875 269.99H499.317C498.867 270.182 498.439 270.422 498.042 270.707L497.166 271.185L496.13 271.902L495.174 272.699C494.885 272.847 494.638 273.067 494.457 273.336C494.05 273.612 493.676 273.932 493.342 274.292C493.137 274.458 492.95 274.645 492.784 274.85L491.749 276.045C491.522 276.218 491.333 276.435 491.191 276.682L490.315 277.877L489.757 278.833L489.12 279.789C489.12 280.267 489.12 280.666 488.482 281.064C488.383 281.37 488.249 281.664 488.084 281.94C488.084 282.339 488.084 282.817 487.526 283.295V284.091C487.074 284.665 486.674 285.279 486.331 285.924V286.959V288.075C486.297 288.499 486.297 288.925 486.331 289.349C486.292 289.667 486.292 289.988 486.331 290.305C486.292 290.836 486.292 291.368 486.331 291.899V643.228C486.688 649.483 489.425 655.365 493.98 659.668C498.535 663.97 504.563 666.367 510.829 666.367C517.094 666.367 523.123 663.97 527.678 659.668C532.233 655.365 534.969 649.483 535.326 643.228V395.545L663.908 653.823C665.932 657.903 669.056 661.336 672.927 663.737C676.797 666.137 681.261 667.409 685.816 667.409C690.371 667.409 694.835 666.137 698.705 663.737C702.576 661.336 705.7 657.903 707.724 653.823L836.863 395.545V642.909C836.863 649.395 839.44 655.616 844.027 660.203C848.614 664.79 854.835 667.366 861.321 667.366C867.808 667.366 874.028 664.79 878.615 660.203C883.202 655.616 885.779 649.395 885.779 642.909V291.5Z" fill="black"></path></g><defs><clipPath id="clip0_7_265"><rect width="1378" height="935" fill="white"></rect></clipPath></defs></svg> 