<?xml version="1.0" encoding="UTF-8"?> <svg xmlns="http://www.w3.org/2000/svg" width="1378" height="935" viewBox="0 0 1378 935" fill="none"><path d="M1348.67 608.074L1349.31 400.216C1349.31 367.067 1341.44 340.288 1325.72 319.881C1309.96 299.05 1285.3 288.634 1251.73 288.634C1233.45 288.634 1203.48 316.453 1161.82 372.091C1157.56 346.587 1147.54 326.396 1131.77 311.518C1116.53 296.273 1094.66 288.645 1066.17 288.634C1046.63 288.634 1014.53 319.235 969.883 380.437H969.248C969.671 375.329 969.883 368.53 969.883 360.04C969.883 334.102 965.43 315.819 956.527 305.192C947.992 294.588 936.078 289.28 920.787 289.269C909.765 289.395 899.06 292.967 890.172 299.484C879.815 306.827 870.577 315.631 862.744 325.622C854.243 335.815 842.98 350.904 828.956 370.889L827.004 373.66C826.297 360.8 823.947 348.084 820.009 335.821C815.22 320.91 804.946 308.375 791.264 300.752C777.265 292.251 757.299 288 731.368 288C720.306 288 703.301 291.611 680.352 298.833C657.817 306.077 631.909 322.445 602.629 347.939C585.502 362.583 569.532 381.227 554.72 403.871C551.645 394.047 547.737 384.503 543.034 375.346C529.936 349.116 509.567 327.207 484.357 312.236C459.216 296.501 430.276 288.634 397.535 288.634C383.935 288.634 364.164 294.159 338.224 305.209C323.564 311.359 309.93 319.712 297.793 329.979C296.99 329.979 296.123 330.079 295.254 330.079C289.712 330.079 283.987 327.959 278.029 323.703C270.656 318.227 263.657 312.266 257.078 305.86C252.609 301.78 247.923 297.946 243.038 294.376C238.308 290.548 234.457 288.634 231.487 288.634C227.236 288.634 220.641 294.159 211.705 305.209C203.214 316.281 191.099 332.861 175.363 354.949L158.786 377.9H153.678C154.112 373.66 154.313 367.484 154.313 359.406C154.313 333.49 149.861 315.424 140.958 305.209C132.445 294.593 120.515 289.28 105.168 289.269C94.1637 289.405 83.4772 292.977 74.6025 299.484C64.2512 306.827 55.0185 315.632 47.192 325.622C38.6785 335.826 27.3994 350.915 13.3547 370.889L0 390.018L2.55408 393.156L50.3806 369.621V608.074L20.3324 632.945V636.849H191.973V633.026L162.609 608.724V392.572C164.186 388.516 166.571 384.825 169.621 381.722C172.959 378.751 175.781 377.266 177.967 377.266C182.774 377.32 187.446 378.878 191.323 381.722C196.564 385.552 201.472 389.818 205.996 394.474C210.942 399.554 216.273 404.247 221.937 408.512C226.753 411.407 232.261 412.947 237.88 412.968C239.048 412.968 240.218 412.968 241.386 412.785C236.029 432.801 233.445 453.457 233.707 474.176C233.437 504.096 240.435 533.636 254.105 560.254C267.339 586.197 287.415 608.026 312.165 623.38C337.261 638.679 366.197 646.33 398.971 646.33C412.559 646.33 432.324 641.017 458.266 630.39C484.631 619.34 508.65 600.213 530.331 573.005C530.697 572.555 531.049 572.07 531.416 571.587C531.332 573.257 531.282 575.076 531.282 576.844C531.282 598.086 537.87 614.873 551.046 627.201C564.657 639.098 582.514 645.051 604.615 645.062C630.534 645.062 652.002 636.984 669.019 620.826C686.034 604.668 700.631 582.78 712.805 555.163H716.144C715.709 559.402 715.509 565.579 715.509 573.655C715.509 599.584 719.76 617.86 728.264 628.487C737.166 639.104 749.28 644.417 764.604 644.428C779.929 644.438 793.957 638.063 806.689 625.299C819.442 612.547 835.813 591.715 855.801 562.807L866.017 548.402V608.074L835.969 632.945V636.849H1007.51V633.026L978.228 608.074V388.148C988.423 373.682 1000.96 366.449 1015.84 366.449C1038.81 366.449 1050.29 380.264 1050.28 407.894V608.074L1020.95 632.945V636.849H1192.44V633.026L1162.39 608.158L1163.68 400.3C1163.75 396.467 1163.54 392.634 1163.04 388.833C1174.14 373.911 1186.91 366.449 1201.37 366.449C1224.74 366.449 1236.43 380.264 1236.43 407.894V608.074L1206.38 632.945V636.849H1378V633.026L1348.67 608.074ZM455.561 615.15C452.418 615.862 449.216 616.287 445.995 616.42C430.705 616.42 414.98 604.942 398.82 581.986C383.072 558.617 367.13 523.76 350.995 477.413C333.556 426.405 324.837 387.086 324.837 359.456C324.837 331.826 333.556 318.022 350.995 318.044C380.329 318.044 411.362 364.38 444.092 457.05C462.377 510.608 471.514 550.567 471.503 576.928C471.503 598.125 466.189 610.867 455.561 615.15ZM710.969 533.531C705.025 545.013 698.015 553.726 689.935 559.669C681.856 565.232 674.205 568.015 666.981 568.015C660.171 568.015 653.794 565.232 647.852 559.669C641.897 553.726 638.92 544.825 638.92 532.962C638.92 518.92 644.446 504.893 655.497 490.884C666.982 476.84 685.9 460.9 712.253 443.062L710.969 533.531ZM712.253 428.958L642.143 459.571C608.121 475.294 581.123 492.085 561.147 509.944C560.178 510.814 559.244 511.697 558.308 512.599C561.791 496.217 563.469 479.506 563.317 462.758C563.317 458.886 563.217 455.052 563.016 451.258L644.647 428.208C636.99 404.016 633.161 383.43 633.161 366.449C633.161 352.406 635.943 341.991 641.509 335.203C644.168 331.877 647.571 329.221 651.445 327.449C655.319 325.678 659.555 324.841 663.81 325.005C678.701 325.005 690.609 334.569 699.534 353.697C708.382 372.38 712.616 397.451 712.238 428.908L712.253 428.958ZM865.95 540.54L820.026 564.142V554.578L825.753 441.711C827.043 424.285 827.683 407.711 827.672 391.987C827.672 390.819 827.672 389.717 827.672 388.649L866.066 369.738L865.95 540.54Z" fill="black"></path></svg> 