<?xml version="1.0" encoding="UTF-8"?> <svg xmlns="http://www.w3.org/2000/svg" width="1378" height="935" viewBox="0 0 1378 935" fill="none"><path d="M1377.44 444.878C1376.52 440.196 1373.88 431.146 1368.18 437.651C1353.21 454.746 1353.3 460.936 1343.28 481.423C1339.51 488.603 1334.95 495.34 1329.67 501.504C1328.03 503.483 1313.1 520.358 1310.77 513.35C1305.06 494.873 1307.39 476.585 1309.66 457.73C1311.38 446.783 1314.12 436.02 1317.85 425.584C1322.49 411.034 1326.71 396.391 1330.74 381.59C1340.92 344.29 1350.34 306.832 1360.83 269.626C1362.12 265.07 1361.02 261.739 1356.71 259.948C1351.61 257.548 1346.12 256.09 1340.51 255.643C1331.88 255.328 1328.73 257.34 1326.3 265.51C1320.35 285.778 1314.67 306.172 1308.65 326.472C1304.93 339.602 1301.92 352.925 1299.64 366.381C1297.19 364.401 1295.45 362.924 1293.63 361.541C1278.06 349.852 1262.64 349.998 1247.37 361.981C1208.07 393.077 1182.15 437.954 1174.9 487.457C1173.89 494.905 1173.99 502.698 1171.18 509.768C1165.81 523.151 1156.93 534.851 1145.47 543.642C1144.34 544.638 1142.99 545.359 1141.53 545.748C1127.64 548.45 1134.41 509.234 1135.42 503.326C1139.08 481.519 1146.61 460.684 1154.07 439.975C1158.16 427.373 1163.14 415.076 1168.98 403.178C1172.88 395.856 1156.66 389.917 1151.9 387.875C1144.01 384.24 1135.11 383.44 1126.69 385.612C1125.53 385.926 1124.05 386.806 1123.23 386.398C1121.65 385.581 1122.5 383.852 1122.79 382.47C1124.44 374.228 1127.78 366.416 1132.62 359.53C1135.26 355.759 1140.65 351.831 1138.29 346.772C1133.28 336.088 1111.06 329.803 1105.08 342.027C1097.2 358.053 1088.98 374.96 1085.92 392.683C1084.69 399.753 1085.2 406.698 1089.92 412.103C1083.62 422.661 1079.49 434.791 1074.95 446.071C1069.93 458.379 1064.14 470.364 1057.63 481.958C1051.89 492.297 1046.47 502.541 1037.11 510.24C1034.18 512.596 1029.33 517.562 1024.95 513.665C1016.54 506.123 1022.49 484.095 1027.35 467.848C1035.1 441.892 1049.84 413.737 1054.32 386.963C1054.76 384.418 1055.55 381.873 1053.37 379.987C1049.81 376.196 1045.87 372.774 1041.62 369.774C1035.82 366.412 1033.4 367.009 1030.12 372.76C1026.84 378.51 1024.51 385.549 1019.72 390.891C1019.74 389.899 1019.94 388.919 1020.32 388C1024.01 378.353 1025.99 369.617 1016.03 361.416C1006.87 353.843 996.31 349.789 985.344 356.294C974.619 362.859 965.041 371.128 956.986 380.773C940.634 399.91 928.975 422.441 917.034 444.406C906.794 463.261 899.42 483.403 889.464 502.352C887.406 506.191 884.876 509.76 881.934 512.974C880.642 514.387 877.649 518.504 875.631 512.974C867.88 490.567 871.568 467.409 877.616 445.161C892.741 389.603 906.446 333.291 923.209 278.205C928.156 261.959 926.645 259.634 909.882 256.208L908.653 255.957C897.971 254.229 893.654 256.805 890.661 267.144C884.045 290.052 877.364 312.96 871.062 335.994C868.416 345.641 866.62 355.539 864.32 365.972C861.862 364.087 860.098 362.83 858.302 361.384C843.177 350.354 828.558 349.883 814.189 360.756C800.683 370.824 788.692 382.772 778.585 396.233C758.54 422.418 745.233 453.103 739.829 485.603C739.206 488.448 737.923 491.107 736.079 493.365C733.212 497.451 730.534 501.661 727.572 505.651C719.803 516.667 711.231 527.098 701.924 536.856C700.286 538.489 698.049 541.193 695.623 539.997C693.197 538.804 694.741 535.472 694.834 533.116C695.464 519.132 699.845 505.871 702.491 492.265C705.162 478.95 708.58 465.793 712.731 452.859C720.545 428.192 727.446 402.581 735.512 377.599C739.167 366.286 735.859 357.488 726.942 349.852C726.199 349.115 725.387 348.453 724.516 347.872C716.701 343.724 709.14 338.853 699.656 343.976C687.214 350.231 675.819 358.373 665.879 368.109C657.502 376.024 649.778 384.599 642.783 393.751C640.513 380.302 633.739 373.702 621.546 372.037C615.528 371.22 609.666 373.64 609.414 378.039C607.841 397.64 604.84 417.101 600.435 436.267C594.7 464.548 581.025 496.13 557.836 514.828C556.322 516.021 554.936 518.599 552.699 517.467C548.824 515.519 549.548 499.242 549.359 495.471C548.666 456.661 573.463 424.358 579.985 387.152C580.428 384.607 581.246 382.155 579.198 380.144C575.591 375.887 571.338 372.218 566.595 369.272C562.277 367.072 558.685 366.946 556.448 372.163C554.904 375.777 553.299 379.359 551.376 382.815C549.454 386.272 547.563 389.1 545.641 392.243C548.508 381.559 553.299 372.068 542.489 361.981C506.759 328.861 464.633 406.195 450.264 429.292C441.883 442.772 436.338 457.824 427.483 470.991C413.525 491.826 399.125 512.439 384.916 533.085C383.309 535.411 381.513 537.548 378.961 540.91C377.832 526.584 378.297 512.177 380.347 497.953C389.016 442.912 401.491 388.533 417.684 335.208C419.701 328.609 420.52 324.398 428.428 323.958C475.189 321.382 521.947 318.679 568.769 316.982C593.188 316.102 617.891 316.322 642.12 312.771L682.263 305.324C682.263 303.061 679.963 303.281 678.419 303.187C673.472 302.904 668.431 301.804 663.579 301.93C646.154 302.433 628.919 299.636 611.495 299.731C590.384 299.731 569.21 298.379 548.067 298.034C520.875 297.594 493.683 298.034 466.491 298.254C456.126 298.254 445.727 298.756 435.33 299.259C430.068 299.479 429.531 297.594 432.179 293.54C434.446 289.958 439.489 283.704 437.63 278.959C434.887 272.046 421.402 271.26 415.227 270.098C413.683 269.665 412.061 269.581 410.481 269.853C408.899 270.125 407.399 270.745 406.09 271.669C401.553 275.565 398.527 290.995 396.195 296.808C395.737 297.973 394.894 298.948 393.806 299.57C392.717 300.193 391.449 300.427 390.209 300.233C364.435 299.856 338.755 303.376 312.981 303.376C310.114 303.376 308.633 302.967 308.696 299.825C308.434 293.594 307.079 287.458 304.695 281.693C301.544 272.517 296.944 263.813 287.774 259.696C276.493 255.14 264.147 253.865 252.17 256.02C223.434 260.011 197.093 270.82 171.76 284.521C157.008 292.078 143.741 302.222 132.594 314.468C120.621 328.138 115.453 343.818 122.228 361.133C135.682 395.385 172.988 406.226 205.001 416.345C234.65 425.773 264.867 433.093 290.704 451.822C299.681 457.999 305.887 467.424 308.003 478.093C316.352 518.158 281.284 558.946 252.705 582.42C232.486 598.796 210.25 612.525 186.538 623.271C167.434 631.846 147.318 637.97 126.671 641.498C84.1338 649.353 21.0534 638.355 33.3733 580.848C36.5242 566.394 43.9602 554.297 53.2237 542.701C93.807 491.919 157.99 471.934 220.22 465.335C217.068 459.521 215.841 451.099 210.987 446.48C200.369 436.299 181.212 441.768 168.671 444.5C150.862 448.247 133.545 454.025 117.06 461.721C83.9111 477.787 54.3542 500.36 30.1595 528.089C5.67722 555.647 -10.5813 593.294 8.10338 628.646C23.8577 658.277 57.5405 678.074 90.7505 680.243C158.494 684.674 233.138 649.573 282.134 604.511C295.469 592.434 307.126 578.63 316.793 563.471C330.437 541.632 342 517.404 338.598 490.6C335.355 465.759 323.32 442.891 304.663 426.118C286.797 410.091 263.922 399.91 241.015 393.437C213.067 385.581 185.434 377.191 158.305 366.758C154.587 365.344 150.397 363.333 149.546 359.467C149.215 357.244 149.613 354.974 150.68 352.994C154.272 345.917 159.242 339.625 165.3 334.485C192.137 309.704 225.749 293.43 261.874 287.727C267.074 286.91 273.438 286.784 276.493 291.089C279.551 295.394 277.251 301.49 274.193 305.858C263.481 321.067 245.553 329.615 233.233 343.567C223.78 354.063 227.908 361.353 232.382 372.666C235.533 380.836 243.19 382.627 249.681 376.594C259.457 368.203 268.745 359.264 277.503 349.82C281.357 344.973 286.223 341.018 291.761 338.229C297.3 335.441 303.377 333.885 309.578 333.668C332.076 332.097 354.51 329.426 377.102 328.578C387.846 328.201 387.751 328.232 384.916 338.256C370.391 389.76 356.903 441.546 349.847 494.747C347.421 513.005 344.458 531.199 345.214 549.834C345.625 560.487 349.721 568.342 359.11 572.93C369.255 577.864 381.324 579.718 391.501 573.841C404.105 566.551 408.169 552.317 418.472 543.297C424.775 549.582 428.713 556.746 437.061 561.304C444.804 565.419 453.504 567.402 462.268 567.053C474.683 566.708 485.87 560.015 494.534 551.53C499.115 547.025 503.145 541.993 506.538 536.541C508.115 534.027 511.455 523.972 515.015 524.161C516.968 524.161 516.401 526.454 516.779 527.711C523.585 549.708 556.7 552.851 573.841 542.512C579.418 539.119 581.214 540.941 586.129 545.027C591.046 549.111 596.937 552.347 602.924 550.934C609.92 549.267 611.054 542.073 611.777 535.818C612.264 530.867 613.085 525.954 614.235 521.112C622.307 489.742 635.828 460.027 654.188 433.313C662.887 420.739 672.358 408.712 682.546 397.302C686.337 393 690.645 389.179 695.371 385.926C695.756 386.402 695.994 386.979 696.055 387.588C696.118 388.196 695.999 388.809 695.716 389.352C688.438 414.208 680.656 438.938 673.661 463.953C666.665 488.965 659.23 514.23 660.049 540.784C660.611 549.032 664.03 556.83 669.721 562.843C675.411 568.856 683.018 572.711 691.242 573.747C710.683 576.104 727.446 560.58 736.048 544.649C740.081 537.202 741.278 537.326 747.14 543.173C749.304 545.107 751.599 546.892 754.008 548.513C767.021 558.129 785.958 555.962 800.325 550.902C816.363 545.214 828.243 532.048 836.781 517.719C837.896 515.051 839.769 512.768 842.169 511.151C839.869 512.283 846.235 524.129 846.958 525.606C849.766 532.229 855.059 537.495 861.705 540.28C868.321 542.888 873.646 541.506 880.264 540.469C883.887 539.873 891.827 538.898 893.15 543.612C898.317 562.089 919.523 567.305 936.444 565.608C959.193 563.221 975.325 547.005 985.629 527.586C986.322 526.265 987.078 524.631 988.526 524.6C990.826 524.6 990.575 526.832 991.048 528.277C994.199 538.365 1003.87 543.988 1013.67 546.283C1035.19 551.499 1050.57 543.988 1063.45 526.926C1083.24 500.781 1095.28 469.011 1104.86 437.871C1106.32 433.347 1107.51 428.74 1108.42 424.075C1113.8 425.142 1119.38 424.262 1124.17 421.593C1124.39 421.593 1124.86 421.907 1125.59 422.252C1121.59 433.88 1115.76 444.783 1111.63 456.441C1105.22 473.086 1100.32 490.271 1096.98 507.788C1095.22 518.755 1094.27 529.188 1098.46 539.81C1101.46 547.298 1106.27 553.931 1112.46 559.116C1118.65 564.304 1126.03 567.882 1133.94 569.537C1151.99 572.678 1169.04 562.875 1179.41 548.891C1181.49 546.094 1184.07 544.712 1187.35 547.289C1197.71 555.49 1213.97 558.57 1226.01 557.407C1246.61 555.396 1259.78 535.222 1270.47 519.699C1272.67 516.556 1274.37 512.283 1277.9 510.27C1277.52 510.492 1282.72 526.706 1283.32 528.308C1284.09 530.78 1285.36 533.07 1287.05 535.031C1288.74 536.994 1290.82 538.588 1293.15 539.715C1309.54 546.881 1327.25 539.904 1339.79 528.591C1358.44 511.748 1371.55 481.643 1377.16 457.636C1378.18 453.453 1378.27 449.1 1377.44 444.878ZM524.058 435.765C510.571 461.375 496.456 486.609 481.079 511.183C474.085 522.275 466.649 533.179 455.086 540.156C453.731 540.973 452.345 542.669 450.675 541.947C448.5 541.004 449.445 538.647 449.476 536.918C449.714 505.697 457.772 475.031 472.919 447.706C481.168 432.114 490.84 417.314 501.812 403.492C503.213 400.995 505.44 399.062 508.115 398.025C502.696 409.966 511.612 413.548 518.859 417.759C529.666 424.075 529.918 424.641 524.058 435.765ZM847.431 431.931C837.979 454.902 825.376 475.924 812.331 497.073C804.568 510.33 794.692 522.239 783.091 532.331C775.559 538.615 772.788 537.515 770.833 527.711C761.381 479.884 786.084 426.464 814.347 389.194C819.01 382.91 823.421 375.368 830.291 371.471C840.657 365.627 836.592 387.969 835.616 392.4C834.481 398.496 833.43 404.613 832.465 410.751C831.488 417.036 835.048 419.99 840.562 421.184C842.144 421.534 843.677 422.072 845.131 422.787C849.762 425.112 849.321 427.405 847.431 431.994V431.931ZM998.673 434.821C983.688 464.336 967.036 492.978 948.794 520.61C943.596 528.676 936.679 535.499 928.534 540.595C925.163 542.638 923.02 543.423 923.115 537.924C923.32 521.381 925.681 504.933 930.141 488.996C939.941 454.996 959.412 425.112 980.84 397.522C980.84 397.522 981.218 397.522 981.974 397.176C979.326 409.243 979.485 409.589 990.323 416.251C991.206 416.785 992.088 417.319 993.001 417.822C1003.87 423.855 1004.28 424.044 998.452 434.884L998.673 434.821ZM1281.65 433.848C1269.87 460.886 1255.31 486.635 1238.2 510.679C1233.02 518.977 1226.56 526.401 1219.04 532.677C1217.06 534.493 1214.52 535.598 1211.83 535.818C1203.92 535.818 1201.84 517.686 1201.97 512.565C1202.47 491.919 1207.39 473.505 1213.75 453.991C1220.12 434.476 1232.81 415.81 1244.38 398.402C1246.49 395.259 1270.25 366.789 1271.51 373.074C1273.11 381.056 1271.51 388.786 1269.9 396.422C1268.79 401.062 1268.02 405.778 1267.6 410.531C1267.28 417.319 1269.05 419.739 1275.85 421.278C1277.05 421.478 1278.24 421.783 1279.38 422.19C1285.62 425.049 1283.64 428.883 1281.56 433.911L1281.65 433.848Z" fill="black"></path></svg> 